<svg xmlns="http://www.w3.org/2000/svg" xmlns:xlink="http://www.w3.org/1999/xlink" viewBox="0 0 617 500"><defs><style>.cls-1{fill:#572a8e;}.cls-2{fill:#6330a2;}.cls-3{fill:#1b204d;}.cls-4{font-size:16.56px;}.cls-4,.cls-42{fill:#008edd;font-family:SourceSansPro-Bold, SourceSansPro Bold;font-weight:700;}.cls-5{letter-spacing:0em;}.cls-6{fill:#ff2086;}.cls-6,.cls-7{letter-spacing:0em;}.cls-8{letter-spacing:-0.01em;}.cls-9{letter-spacing:-0.01em;}.cls-10{fill:#4a2478;}.cls-11{fill:url(#linear-gradient);}.cls-12{fill:#919191;}.cls-13{fill:#babbba;}.cls-14{fill:#d6d8d6;}.cls-15{fill:#0087b2;}.cls-16{fill:#0079a0;}.cls-17{fill:#778586;}.cls-18{fill:#4f475c;}.cls-19{fill:#657172;}.cls-20{fill:#005483;}.cls-21{fill:#004064;}.cls-22{fill:#ff9300;}.cls-23{fill:#fff;}.cls-24{fill:#ffc5ac;}.cls-25{fill:#ebb59e;}.cls-26{fill:#607cc0;}.cls-27{fill:#566fac;}.cls-28{fill:#a7339f;}.cls-29{fill:#7c564f;}.cls-30{fill:#dc8c7a;}.cls-31,.cls-33,.cls-39{fill:none;stroke-miterlimit:10;}.cls-31{stroke:#dc8c7a;}.cls-31,.cls-33{stroke-width:0.97px;}.cls-32{fill:#e37306;}.cls-33{stroke:#e37306;}.cls-34{fill:#ab7a22;}.cls-35{fill:#b89a22;}.cls-36{fill:url(#linear-gradient-2);}.cls-37{fill:#c4c5c4;}.cls-38{fill:#d7d8d7;}.cls-39{stroke:#a9a4a9;}.cls-40{letter-spacing:-0.02em;}.cls-41{letter-spacing:0em;}.cls-42{font-size:25.48px;}</style><linearGradient id="linear-gradient" x1="202.17" y1="158.56" x2="157.38" y2="261.75" gradientUnits="userSpaceOnUse"><stop offset="0.01" stop-color="#fff" stop-opacity="0"/><stop offset="0.09" stop-color="#fff" stop-opacity="0.04"/><stop offset="0.23" stop-color="#fff" stop-opacity="0.13"/><stop offset="0.4" stop-color="#fff" stop-opacity="0.29"/><stop offset="0.6" stop-color="#fff" stop-opacity="0.5"/><stop offset="0.83" stop-color="#fff" stop-opacity="0.77"/><stop offset="1" stop-color="#fff"/></linearGradient><linearGradient id="linear-gradient-2" x1="303.13" y1="188" x2="258.56" y2="290.68" xlink:href="#linear-gradient"/></defs><g id="BACKGROUND"><rect class="cls-1" width="500" height="500"/></g><g id="OBJECTS"><path class="cls-2" d="M127.3,74c-10.8,21.7-4,48-17.3,68s-54.7,16.7-59.3,63.3S60,298,92.7,312,154,330.7,162,354s65.3,30.7,96.7,26,68.6-45.3,100.6-39.3,80-15.4,82-54.7-20.6-62.7-21.3-76,1.3-17.3,15.3-30.7,27.8-29.1,24.7-50.6C455.3,96,423.3,66,385.3,57.3S289.3,92.7,270.7,86,238,49.3,212,44,138.7,51.3,127.3,74Z"/><path class="cls-2" d="M474.2,196.1a13.7,13.7,0,0,0-4-6.7c-3.6-6.2-10.6-9.7-18.1-5.8s-10.8,16-6.9,23.6,12.4,10.6,20,6.7S475.5,202.9,474.2,196.1Z"/><path class="cls-2" d="M116.7,346.6C135,335.3,148,359.3,147,373.3c-1,4-9,5-15,3-9-4-18-12-18.3-23.4A10.6,10.6,0,0,1,116.7,346.6Z"/><rect class="cls-3" x="289" y="35" width="155" height="80.8" rx="8.2"/><polygon class="cls-3" points="328.5 109.1 328.5 141.3 354.7 109.7 328.5 109.1"/><text class="cls-4" transform="translate(300.5 64)">&lt;<tspan class="cls-5" x="9.9" y="0">h</tspan><tspan x="19" y="0">tml </tspan><tspan class="cls-6" x="45.7" y="0">lang</tspan><tspan class="cls-7" x="76" y="0">=</tspan><tspan class="cls-8" x="85.9" y="0">&quot;</tspan><tspan x="91.3" y="0">e</tspan><tspan class="cls-9" x="99.6" y="0">n</tspan><tspan x="108.7" y="0">&quot;&gt;</tspan></text><text class="cls-4" transform="translate(300.5 89.4)">&lt;body&gt;</text><path class="cls-10" d="M432,425.7c0,16.3-81.5,29.6-182,29.6S68,442,68,425.7,149.5,396,250,396,432,409.3,432,425.7Z"/><polygon class="cls-11" points="85.3 187.3 144 98 296.7 181.3 196.7 257.3 85.3 187.3"/><path class="cls-12" d="M202,258.2a2.3,2.3,0,0,1-2.3,2.5H89.6a2.7,2.7,0,0,1-2.7-2.5l-5-74.6a2.4,2.4,0,0,1,2.4-2.4h110a2.7,2.7,0,0,1,2.7,2.4Z"/><path class="cls-13" d="M197,183.6a2.7,2.7,0,0,0-2.7-2.4h-3.5a2.7,2.7,0,0,1,2.7,2.4l5,74.6a2.3,2.3,0,0,1-2.3,2.5h3.5a2.3,2.3,0,0,0,2.3-2.5Z"/><rect class="cls-14" x="136.7" y="276.2" width="18.1" height="2.68" rx="0.8"/><path class="cls-13" d="M141.1,277.5a1.6,1.6,0,0,1-1.6,1.4H115.9a1.2,1.2,0,0,1-1.2-1.4l7.4-60.1a1.5,1.5,0,0,1,1.5-1.4h23.6a1.2,1.2,0,0,1,1.2,1.4Z"/><path class="cls-14" d="M148.4,217.4a1.2,1.2,0,0,0-1.2-1.4h-3a1.2,1.2,0,0,1,1.2,1.4l-7.3,60.1c-.1.8,1.4,1.4,1.4,1.4a1.6,1.6,0,0,0,1.6-1.4Z"/><path class="cls-15" d="M319.9,321.7v71.5h0c-.1,1.1-1.7,2-3.7,2s-3.6-.9-3.6-2h0V321.7Z"/><path class="cls-16" d="M268.6,408.4a4.1,4.1,0,0,1-4.2-4.1c0-9.7,7.7-12.8,14.4-14.3s35.3-3.8,36.5-3.9a4.2,4.2,0,0,1,4.4,3.9,4.2,4.2,0,0,1-3.9,4.5c-.3,0-27.6,1.8-35.1,3.6s-7.9,4-7.9,6.2A4.1,4.1,0,0,1,268.6,408.4Z"/><path class="cls-17" d="M277.9,412.9a10.5,10.5,0,1,1-10.5-10.5A10.5,10.5,0,0,1,277.9,412.9Z"/><path class="cls-18" d="M271.8,412.9a4.4,4.4,0,1,1-4.4-4.4A4.4,4.4,0,0,1,271.8,412.9Z"/><path class="cls-16" d="M363.9,408.4a4.1,4.1,0,0,0,4.2-4.1c0-9.7-7.7-12.8-14.4-14.3s-35.3-3.8-36.5-3.9a4.2,4.2,0,0,0-4.4,3.9,4.2,4.2,0,0,0,3.9,4.5c.2,0,27.6,1.8,35.1,3.6s7.9,4,7.9,6.2A4.1,4.1,0,0,0,363.9,408.4Z"/><path class="cls-17" d="M354.6,412.9A10.5,10.5,0,1,0,365,402.4,10.5,10.5,0,0,0,354.6,412.9Z"/><path class="cls-18" d="M360.7,412.9a4.3,4.3,0,0,0,4.3,4.3,4.4,4.4,0,1,0,0-8.7A4.4,4.4,0,0,0,360.7,412.9Z"/><path class="cls-16" d="M316.2,414.9a4.1,4.1,0,0,1-4.1-4.1V390.3a4.1,4.1,0,0,1,4.1-4.2,4.2,4.2,0,0,1,4.2,4.2v20.5A4.1,4.1,0,0,1,316.2,414.9Z"/><rect class="cls-19" x="311.3" y="403.3" width="9.9" height="19.98" rx="2"/><path class="cls-20" d="M361.4,308.2c-1.2-1.6-89.1-1.6-90.3,0s-7,23.5,7.5,23.5h75.3C368.4,331.7,362.9,310.2,361.4,308.2Z"/><path class="cls-20" d="M315.5,209.2c7-2,54.5-5.5,58,6s-6.5,78-8.5,93.5-33.5,10-49.5,9.5-21.5-7.5-18-20.5,12-52.5,13-61S308.5,211.2,315.5,209.2Z"/><path class="cls-21" d="M342.5,211.2s11.5.5,11.5,13-3.5,30-1,39,4,34.5,2,42.5-13,17.5-22,17-40,10-48.5,0S330.5,207.2,342.5,211.2Z"/><path class="cls-22" d="M300.9,138.3c8.1.3,24.8,4.4,28.7,24.1s-.7,21.1,5.9,27.9,13.8,15.8,12.1,26.3-32.3,10.2-32.3,10.2-39.9,1.7-42.8-3.4,3.4-16,3.2-25.5-3.7-32.1-1-39.6S292.9,138.1,300.9,138.3Z"/><path class="cls-23" d="M220.3,371.8s-3.3,4-9.8,11.3c-2.4,2.7-8.5,5.9-10.6,8.6-4.1,5-5.9,8.6,0,10.3a27.7,27.7,0,0,0,15.2.5c4.6-1.2,9.5-9.7,13.2-11.8a31.5,31.5,0,0,0,6.7-4.8c2-1.8-.6-12.7-.6-12.7Z"/><path class="cls-24" d="M220.6,367.2s-6,9-8.4,13.6-5.8,7.7-1.1,9,8.2-1.1,13.2-4.6,9.5-5.8,10.2-8.5a30.3,30.3,0,0,0,.1-9.5c-.4-2.5,1.6-15.5,1.6-15.5L224,348.8Z"/><path class="cls-23" d="M268.7,393.3s-1.4,4.9-4.5,14.2c-1.1,3.5-5.4,8.9-6.3,12.1-1.7,6.3-2,10.3,4.1,9.5a28.3,28.3,0,0,0,14.2-5.5c3.7-3,4.8-12.8,7.4-16.2a27.8,27.8,0,0,0,4.2-7c1.2-2.5-5.5-11.4-5.5-11.4Z"/><path class="cls-25" d="M267.2,388.9s-1.9,10.7-2.3,15.9-2.3,9.3,2.5,8.6,7.1-4.2,10.3-9.4,6.4-9.1,6-11.9a31.9,31.9,0,0,0-3.6-8.7c-1.4-2.1-4.7-14.9-4.7-14.9L263,370.7Z"/><path class="cls-26" d="M288,285.5s-57.8,1.6-62.9,15.1-11.3,70.5-9.7,72.3,29-3.8,29.4-6c.7-4.2,6.3-47,9-51.4s24.1,8.5,36.4,7.5,26.9-3.8,30.6-11.4-1.8-26.7-1.8-26.7Z"/><path class="cls-27" d="M309,288.6a274.9,274.9,0,0,1-25.4,10.9c-12.2,4.6-27.9,8.3-29.8,14.6-4.2,13.8,7.1,72.2,8.8,73.9s26.9-5,27.1-7.2c.5-4.2-4.7-50.8-4.2-53.7s17.4-1.3,29.7-3.1,22.7-4.8,28.1-11.4c9.2-11.4.9-35,.9-35Z"/><path class="cls-24" d="M280.8,203.1c-4,1.3-8.5,6.8-8.1,19.1s.3,23.3.3,23.3L261.2,268s5.8,6.2,8.5,4.5,15.3-20.2,16-22.3S286.9,201,280.8,203.1Z"/><path class="cls-28" d="M314,196.3s21-1.4,26,7.6,3.9,14.2,2.7,24.3c-.8,6.5-2.3,17.2-3,23.4s.6,4,2.3,11.6,4.8,21.3,4,23c-3,6.3-25.9,9.4-43.5,8s-20-7-20-7,2.8-23.9,3.5-28.9c.4-2.9-.8-9.3-2.3-14.8-1.1-3.9-3.2-5.2-4-10.7s1.4-10.6,1-15.5c-.7-6.9-1-13.4-.4-14.6a8.1,8.1,0,0,1,3.6-2.3Z"/><path class="cls-24" d="M303.3,214.2c4.7,0,19.8-9.7,24.3-17.1-6.8-1.3-16.4-2.4-21.1-1.8a118.2,118.2,0,0,0-20.7,4.3C287.3,206,298.7,214.2,303.3,214.2Z"/><path class="cls-24" d="M345.3,210.9c2.7,9.7.5,39.4-5.5,49.1-4.8,7.8-22.3,10.3-28,12.7s-10-5.7-6.3-8,21.7-12.4,21.7-12.4-.9-40.4,3.5-46.4S342.7,201.2,345.3,210.9Z"/><path class="cls-22" d="M294.9,139.1s-23.6,5.5-21.6,23.7c1.6,15.2,11.7,20.4,11.7,20.4s3.1-19.7,7.3-25.6S294.9,139.1,294.9,139.1Z"/><path class="cls-24" d="M309.5,148c-6.8-6.5-12.8-7.2-21-2.8-5.6,2.9-9.8,12.5-10.1,19.5s.7,26.6,16.8,29c9.6,1.4,12.1-.5,16.7-5.3C322.5,177.3,320.4,158.5,309.5,148Z"/><path class="cls-24" d="M295.3,182.9l.6,19.6s1.3,11.2,7.3,11.2,12.2-14.6,12.2-14.6l-6.6-22.2Z"/><path class="cls-22" d="M317.3,172.5c1.8,1.3-1.2,11.2-.3,11.6s7-7.1,9.1-10.8c3.1-5.5,1.9-17.2-1.6-23.2s-10.3-10.4-18-12.4-30,8-26.1,15.4,10.3,8.3,15.2,8.3,11.4,1.6,14,3S312.2,168.5,317.3,172.5Z"/><path class="cls-24" d="M320.8,165.9a4.1,4.1,0,0,0-4.2-2.1c-1.4.4-5.1,4.8-5.1,9.4s3.1,4.9,5,5.3a3.9,3.9,0,0,0,3.9-2A10.1,10.1,0,0,0,320.8,165.9Z"/><path class="cls-29" d="M299.4,172.8a2.9,2.9,0,1,0,2.9-2.9A2.9,2.9,0,0,0,299.4,172.8Z"/><path class="cls-29" d="M282.8,174.8a2.9,2.9,0,1,0,2.9-2.9A2.9,2.9,0,0,0,282.8,174.8Z"/><path class="cls-30" d="M291.8,169.1a5.7,5.7,0,0,1,.8,1.3,7.5,7.5,0,0,1,.6,1.3,4.2,4.2,0,0,1,.4,1.5,2.8,2.8,0,0,1,.1.9v.5l-.4.7.2-.4a3.4,3.4,0,0,1-.4,1.2l-.4,1.1a2.9,2.9,0,0,0-.2.9.4.4,0,0,0-.1.3h0l.4.2.5.2,1.1.2,2.3.3a9.3,9.3,0,0,1-2.3.4h-1.9a1.1,1.1,0,0,1-.7-.2h-.2l-.2-.2a.5.5,0,0,1-.3-.4,1.5,1.5,0,0,1-.2-.9,2.8,2.8,0,0,1,.1-1.3l.3-1.2a9.3,9.3,0,0,0,.3-1l.2-.4h0V174a1.3,1.3,0,0,0,.1-.6,6.6,6.6,0,0,0-.1-1.4v-2.9Z"/><path class="cls-31" d="M296.6,193.9c7.1.7,9.5-1,13.3-4.1"/><path class="cls-32" d="M304,166.8h0l.8-.7a6.9,6.9,0,0,0-2.5-.3,4,4,0,0,0-2.8.7c-.7.5.1,1.3.7,1.2l2.4-.3a14.8,14.8,0,0,1,2.1.1c.9-.1.8-1.5,0-1.4h.1a.6.6,0,0,0-.8.8Z"/><path class="cls-32" d="M286.5,168.6v-.2l.8-.6a6.1,6.1,0,0,0-2.7,0c-.9.2-2.1.3-2.6,1.1s0,1.2.6,1.1l2.1-.6,1.5-.3h1.1c.9-.1.6-1.5-.3-1.3h.1c-.4-.2-.9.4-.6.8Z"/><path class="cls-33" d="M295.8,144.4s13.5,0,19,17"/><path class="cls-33" d="M283.6,149.9s6.5,7.9,12.2,8.9"/><path class="cls-33" d="M290.4,146.9s15.6,6,16.9,12.6"/><path class="cls-23" d="M303,180.8l-12.4,2.7s5.3,7.8,9.4,5.5S303,180.8,303,180.8Z"/><path class="cls-33" d="M318.9,152.9s7.1,5.4,7.3,17.5c.2,8.5-2.7,13.9.5,18s7.3,7.3,7.5,10.7"/><path class="cls-33" d="M278.8,180.9s2.4,3.1,3.2,9.9-1.5,8.1-1.7,10.5"/><path class="cls-24" d="M307.2,265.3s-11.4-7.3-15.8-6.2-8.4,0-10.9,4-4.4,8.1-2.2,8.8,2.4-.4,3.4-2a11.2,11.2,0,0,1,3.1-3.1,27,27,0,0,0-1.1,3.7c-.5,2-.7,4,.4,4.6s1.9-.8,2.8-2.7a20.8,20.8,0,0,1,2.7-3.9,34.4,34.4,0,0,0-1,3.5c-.3,1.8-.4,3.6.7,3.9s2.6-1.7,2.9-2.8,2.3-1.8,2.3-1.8a8.6,8.6,0,0,0,7.5,4.6c5.2,0,9.7-2.1,9.1-4.3S307.2,265.3,307.2,265.3Z"/><path class="cls-31" d="M287.4,263.8s-3.4,1.4-3.8,7.4"/><path class="cls-31" d="M294.5,264.9c-3-.5-4.4,2.4-5,3.5s-1.8,3.3-1,5.3"/><rect class="cls-34" x="110.8" y="290.2" width="4.5" height="147.5"/><rect class="cls-35" x="103.3" y="290.2" width="8.5" height="147.5"/><rect class="cls-34" x="169.2" y="281.5" width="4.5" height="138.17"/><rect class="cls-35" x="161.7" y="281.5" width="8.5" height="138.17"/><rect class="cls-34" x="342.5" y="290.2" width="4.5" height="147.5"/><rect class="cls-35" x="335" y="290.2" width="8.5" height="147.5"/><rect class="cls-34" x="400.8" y="281.5" width="4.5" height="138.17"/><rect class="cls-35" x="393.3" y="281.5" width="8.5" height="138.17"/><rect class="cls-23" x="73.2" y="279" width="353.7" height="16" rx="3"/><polygon class="cls-36" points="196.7 234.7 239.3 136 388.7 190 276.9 277.3 196.7 234.7"/><path class="cls-37" d="M310.4,276.3,278.5,273c-4-11.3-13.6-47.5-15.4-49.3s-73.8-1-75.9,1.8,15.7,55.4,15.7,55.4l106.9-.4C311.9,280.5,310.4,276.3,310.4,276.3Z"/><path class="cls-38" d="M231.9,249.9c1,4.2-1.2,8.3-4.9,9.2s-7.6-1.7-8.6-5.8,1.2-8.3,4.9-9.2S230.9,245.8,231.9,249.9Z"/><line class="cls-39" x1="259" y1="228.2" x2="272.2" y2="273.7"/><line class="cls-39" x1="204.5" y1="277.2" x2="269" y2="277.2"/><path class="cls-38" d="M278.5,273c-4-11.3-13.6-47.5-15.4-49.3a7.1,7.1,0,0,0-2-.4c.6,9,15.8,54,15.8,54l33.8-.2a2.4,2.4,0,0,0-.3-.8Z"/><rect class="cls-3" x="169.3" y="74.5" width="100.2" height="53.6" rx="7.5"/><polygon class="cls-3" points="259.2 122 259.2 151.4 235.3 122.5 259.2 122"/><text class="cls-4" transform="translate(187.9 107)">&lt;/<tspan class="cls-40" x="15.5" y="0">C</tspan><tspan class="cls-41" x="24.8" y="0">ODE&gt;</tspan></text><rect class="cls-3" x="373.3" y="142.5" width="63" height="44.31" rx="6.2"/><polygon class="cls-3" points="382.5 180 358.2 180 382.1 162.5 382.5 180"/><text class="cls-42" transform="translate(387 173.3)">&lt;/&gt;</text></g><g id="DESIGNED_BY_FREEPIK" data-name="DESIGNED BY FREEPIK"><text/></g></svg>